<?xml version="1.0" encoding="UTF-8"?>
<svg id="Layer_1" xmlns="http://www.w3.org/2000/svg" version="1.1" viewBox="0 0 451.5 116.2">
  <!-- Generator: Adobe Illustrator 29.1.0, SVG Export Plug-In . SVG Version: 2.1.0 Build 142)  -->
  <defs>
    <style>
      .st0 {
        fill: #fff;
      }
    </style>
  </defs>
  <path class="st0" d="M167.1,96.3c-7.2,0-13.5-1.5-18.9-4.6-5.4-3.1-9.6-7.4-12.6-13-2.9-5.7-4.3-12.2-4.3-19.5s1.4-13.7,4.3-19.3c3-5.7,7.2-10.1,12.6-13.2s11.7-4.6,18.9-4.6,13.4,1.5,18.8,4.6c5.4,3.1,9.6,7.5,12.6,13.2,3,5.6,4.5,12,4.5,19.3s-1.5,13.8-4.5,19.5c-3,5.6-7.2,9.9-12.6,13s-11.7,4.6-18.8,4.6ZM167.1,84.7c3.8,0,7.5-.9,10.9-2.7,3.6-1.8,6.4-4.6,8.7-8.4,2.3-3.8,3.5-8.7,3.5-14.6s-1.2-10.6-3.5-14.4c-2.2-3.8-5.1-6.6-8.7-8.3-3.4-1.8-7.1-2.7-10.9-2.7s-7.6.9-11.2,2.7c-3.4,1.7-6.3,4.4-8.5,8.3-2.2,3.8-3.4,8.6-3.4,14.4s1.1,10.7,3.4,14.6,5.1,6.6,8.5,8.4c3.6,1.8,7.3,2.7,11.2,2.7ZM215.1,94.9c-2.5,0-4.6-.7-6.3-2-1.7-1.3-2.5-3.1-2.5-5.5s.8-4.1,2.2-5.7l40.3-46.3h-35.4c-1.7,0-3.1-.6-4.2-1.7s-1.7-2.5-1.7-4.2.6-3.1,1.7-4.2c1.1-1.2,2.5-1.8,4.2-1.8h42.4c2.4,0,4.4.8,5.9,2.2s2.2,3.4,2.2,5.7-.6,4-2,5.6l-39.2,45.9h36c1.7,0,3.1.6,4.2,1.8,1.2,1.1,1.8,2.5,1.8,4.2s-.6,3.1-1.8,4.2c-1.1,1.1-2.5,1.7-4.2,1.7,0,0-43.7,0-43.7,0ZM298.9,96.3c-5.1,0-9.6-1.2-13.4-3.6-3.7-2.4-6.6-5.7-8.7-9.9-2-4.2-2.9-8.8-2.9-13.9V29.1c0-1.8.6-3.3,1.8-4.5,1.3-1.2,2.9-1.8,4.6-1.8s3.3.6,4.5,1.8c1.2,1.2,1.8,2.7,1.8,4.5v38.4c0,11.4,5.1,17.1,15.4,17.1s8.8-1.2,12.5-3.6c3.7-2.4,7.2-5.7,10.5-9.8V29.1c0-1.8.6-3.3,1.8-4.5,1.3-1.2,2.9-1.8,4.6-1.8s3.3.6,4.5,1.8c1.2,1.2,1.8,2.7,1.8,4.5v60.1c0,1.8-.6,3.3-1.8,4.6-1.2,1.2-2.7,1.8-4.5,1.8s-3.3-.6-4.6-1.8c-1.2-1.3-1.8-2.8-1.8-4.6v-5.7c-3.5,3.9-7.4,7.1-11.5,9.4-4.1,2.3-9,3.5-14.6,3.5ZM353.9,95.6c-1.8,0-3.3-.6-4.5-1.8-1.2-1.2-1.8-2.7-1.8-4.5V29.3c0-1.8.6-3.3,1.8-4.5,1.2-1.3,2.7-2,4.5-2s3.3.6,4.5,2c1.3,1.2,2,2.7,2,4.5v6c6.5-8.8,13.9-13.2,22-13.2h.7c1.8,0,3.2.6,4.3,1.8,1.2,1.2,1.8,2.7,1.8,4.5s-.6,3.2-1.8,4.3c-1.2,1.1-2.8,1.7-4.6,1.7h-.7c-4.5,0-8.6,1.1-12.3,3.4-3.7,2.2-6.9,5.1-9.4,9v42.6c0,1.8-.6,3.3-2,4.5-1.2,1.2-2.7,1.8-4.5,1.8ZM412.4,96.3c-4.1,0-7.9-.8-11.5-2.5-3.5-1.7-6.2-4.1-8.3-7.3-2-3.3-3.1-7-3.1-11.2,0-6.9,2.7-12.4,8.1-16.5,5.5-4.1,13.5-6.2,24.1-6.2h16.9v-1.1c0-6.2-1.5-10.6-4.6-13.3-3-2.7-7.7-4.1-14.1-4.1s-6.7.3-9.5.8c-2.7.6-5.7,1.4-9.1,2.5-.8.2-1.4.3-1.8.3-1.4,0-2.6-.5-3.6-1.5-1-1-1.5-2.3-1.5-3.8,0-2.5,1.2-4.3,3.6-5.3,7.9-3.4,16-5,24.2-5s11.9,1.3,16.2,3.9c4.5,2.6,7.8,6,9.8,10.2,2.1,4.1,3.2,8.6,3.2,13.4v39.6c0,1.8-.6,3.3-2,4.5-1.2,1.2-2.7,1.8-4.5,1.8s-3.3-.6-4.5-1.8c-1.2-1.2-1.8-2.7-1.8-4.5v-3.6c-6.9,7.1-15.7,10.6-26.3,10.6h0ZM417.2,85.1c4.1,0,8.1-1,11.9-2.9,3.8-2.1,7-4.6,9.7-7.6v-11.8h-15.3c-14.1,0-21.1,3.7-21.1,11.1s1.1,6.1,3.4,8.1c2.3,2.1,6.2,3.1,11.5,3.1ZM58.4,94.6c-18.2,1.9-33.4-13.3-31.5-31.5,1.4-13.2,12.1-23.9,25.3-25.3,18.2-1.9,33.4,13.3,31.5,31.5-1.4,13.2-12.1,23.9-25.3,25.3h0ZM56.7,47.7c-11.4-.9-20.9,8.6-20,20,.7,9,8,16.2,17,17,11.4.9,20.9-8.6,20-20-.7-9-8-16.2-17-17h0ZM55.2,116.2c-4.1,0-10-2.6-22-21.6-9.6-15.3-29-23.1-29.2-23.2l-1.2-.5c-3.3-1.3-3.7-5.9-.6-7.8l1.1-.7C40.7,39.8,50.3,6.1,50.4,5.8l.7-2.7c1.1-4.2,7.1-4.2,8.2,0l.7,2.7c0,.3,9.6,34,47.1,56.7l1.1.7c3.1,1.9,2.7,6.4-.6,7.8l-1.2.5c-.2,0-19.6,8-29.2,23.2-12,19-17.9,21.6-22,21.6h0ZM54.9,106.2h0ZM21,62.4c-2.3,1.8-2.2,5.3.2,6.9,6.9,4.5,14.9,11.1,20.5,19.9,4.9,7.7,8.3,11.9,10.5,14.2,1.7,1.7,4.5,1.7,6.1,0,2.2-2.3,5.6-6.5,10.5-14.2,5.6-8.8,13.6-15.4,20.5-19.9,2.5-1.6,2.6-5.1.2-6.9-15-11.7-24.6-24.5-30.6-34.8-1.6-2.9-5.8-2.9-7.4,0-5.9,10.2-15.5,23.1-30.6,34.8,0,0,0,0,0,0Z"/>
</svg>